<svg id="Layer_1" data-name="Layer 1" xmlns="http://www.w3.org/2000/svg" viewBox="0 0 121.12 121.12"><defs><style>.cls-1{fill:#fff;}</style></defs><path class="cls-1" d="M192,238H145.68a37.45,37.45,0,0,1-37.42-37.42V154.26a37.45,37.45,0,0,1,37.42-37.42H192a37.45,37.45,0,0,1,37.41,37.42v46.28A37.45,37.45,0,0,1,192,238ZM145.68,130.34a24,24,0,0,0-23.92,23.92v46.28a24,24,0,0,0,23.92,23.92H192a23.94,23.94,0,0,0,23.91-23.92V154.26A23.94,23.94,0,0,0,192,130.34Z" transform="translate(-108.26 -116.84)"/><path class="cls-1" d="M168.82,208.36a31,31,0,1,1,31-31A31,31,0,0,1,168.82,208.36Zm0-49.77a18.81,18.81,0,1,0,18.81,18.81A18.83,18.83,0,0,0,168.82,158.59Z" transform="translate(-108.26 -116.84)"/><circle class="cls-1" cx="93.08" cy="27.81" r="5.23"/></svg>