<?xml version="1.0" encoding="utf-8"?>
<!-- Generator: Adobe Illustrator 25.4.1, SVG Export Plug-In . SVG Version: 6.00 Build 0)  -->
<svg version="1.1" id="Layer_1" xmlns="http://www.w3.org/2000/svg" xmlns:xlink="http://www.w3.org/1999/xlink" x="0px" y="0px"
	 viewBox="0 0 200 200" style="enable-background:new 0 0 200 200;" xml:space="preserve">
<style type="text/css">
	.st0{fill:#010201;}
</style>
<g>
	<path class="st0" d="M127.29,32.42H72.71c-11.03,0-20.01,8.98-20.01,20.01v95.15c0,11.03,8.97,20.01,20.01,20.01h54.57
		c11.03,0,20.01-8.98,20.01-20.01V52.42C147.29,41.39,138.32,32.42,127.29,32.42z M72.71,41.65h54.57c5.94,0,10.78,4.83,10.78,10.77
		v76.23H61.94V52.42C61.94,46.48,66.77,41.65,72.71,41.65z M127.29,158.35H72.71c-5.94,0-10.78-4.83-10.78-10.78v-9.69h76.12v9.69
		C138.06,153.52,133.23,158.35,127.29,158.35z"/>
	<path class="st0" d="M98.74,54.93c2.04,0,3.69-1.65,3.69-3.69c0-2.04-1.65-3.69-3.69-3.69c-2.04,0-3.69,1.65-3.69,3.69
		C95.05,53.28,96.7,54.93,98.74,54.93z"/>
	<path class="st0" d="M98.74,143.63c-2.04,0-3.69,1.65-3.69,3.69c0,2.04,1.65,3.69,3.69,3.69c2.04,0,3.69-1.65,3.69-3.69
		C102.43,145.28,100.78,143.63,98.74,143.63z"/>
</g>
</svg>
