<?xml version="1.0" encoding="utf-8"?>
<!-- Generator: Adobe Illustrator 25.4.1, SVG Export Plug-In . SVG Version: 6.00 Build 0)  -->
<svg version="1.1" id="Layer_1" xmlns="http://www.w3.org/2000/svg" xmlns:xlink="http://www.w3.org/1999/xlink" x="0px" y="0px"
	 viewBox="0 0 200 200" style="enable-background:new 0 0 200 200;" xml:space="preserve">
<style type="text/css">
	.st0{fill:#010201;}
</style>
<g>
	<g>
		<path class="st0" d="M100,166.38L100,166.38c-1.28,0-2.51-0.53-3.38-1.47c-1.97-2.12-48.23-52.22-48.23-79.67
			c0-28.46,23.15-51.61,51.61-51.61s51.61,23.15,51.61,51.61c0,27.45-46.26,77.56-48.23,79.67
			C102.51,165.84,101.28,166.38,100,166.38z M100,42.85c-23.37,0-42.38,19.01-42.38,42.38c0,18.22,28,53.49,42.38,69.66
			c14.37-16.17,42.38-51.44,42.38-69.66C142.38,61.86,123.37,42.85,100,42.85z"/>
	</g>
	<g>
		<path class="st0" d="M100,106.21c-12.81,0-23.23-10.42-23.23-23.23c0-12.81,10.42-23.24,23.23-23.24
			c12.81,0,23.24,10.42,23.24,23.24C123.23,95.79,112.81,106.21,100,106.21z M100,68.97c-7.72,0-14,6.28-14,14c0,7.72,6.28,14,14,14
			c7.72,0,14-6.28,14-14C114,75.25,107.72,68.97,100,68.97z"/>
	</g>
</g>
</svg>
