<svg id="Layer_1" data-name="Layer 1" xmlns="http://www.w3.org/2000/svg" viewBox="0 0 200 200"><defs><style>.cls-1{fill:#fff;}</style></defs><path class="cls-1" d="M147.57,47.46H52.43A19.33,19.33,0,0,0,33.12,66.77v66.46a19.33,19.33,0,0,0,19.31,19.31h95.14a19.33,19.33,0,0,0,19.31-19.31V66.77A19.33,19.33,0,0,0,147.57,47.46Zm0,9.23a10.11,10.11,0,0,1,2.29.27L109.72,102.5a13,13,0,0,1-19.46,0L50.14,57a10.18,10.18,0,0,1,2.29-.27Zm10.08,76.54a10.09,10.09,0,0,1-10.08,10.08H52.43a10.09,10.09,0,0,1-10.08-10.08V66.77A9.94,9.94,0,0,1,43.11,63l40.25,45.66a22.19,22.19,0,0,0,33.3,0L156.9,63a10.13,10.13,0,0,1,.76,3.82v66.46Z"/></svg>