<svg id="Layer_1" data-name="Layer 1" xmlns="http://www.w3.org/2000/svg" viewBox="0 0 200 200"><defs><style>.cls-1{fill:#fff;}</style></defs><path class="cls-1" d="M127.29,32.42H72.71a20,20,0,0,0-20,20v95.15a20,20,0,0,0,20,20h54.57a20,20,0,0,0,20-20V52.42A20,20,0,0,0,127.29,32.42ZM72.71,41.65h54.57a10.79,10.79,0,0,1,10.78,10.77v76.23H61.94V52.42A10.78,10.78,0,0,1,72.71,41.65Zm54.58,116.7H72.71a10.79,10.79,0,0,1-10.78-10.78v-9.69h76.12v9.69A10.77,10.77,0,0,1,127.29,158.35Z"/><path class="cls-1" d="M98.74,54.93a3.69,3.69,0,1,0-3.69-3.69A3.69,3.69,0,0,0,98.74,54.93Z"/><path class="cls-1" d="M98.74,143.63a3.69,3.69,0,1,0,3.69,3.69A3.69,3.69,0,0,0,98.74,143.63Z"/></svg>