<svg id="Layer_1" data-name="Layer 1" xmlns="http://www.w3.org/2000/svg" viewBox="0 0 200 200"><defs><style>.cls-1{fill:#fff;}</style></defs><path class="cls-1" d="M100,166.38h0a4.61,4.61,0,0,1-3.38-1.47c-2-2.12-48.23-52.22-48.23-79.67a51.61,51.61,0,0,1,103.22,0c0,27.45-46.26,77.56-48.23,79.67A4.65,4.65,0,0,1,100,166.38Zm0-123.53A42.43,42.43,0,0,0,57.62,85.23c0,18.22,28,53.49,42.38,69.66,14.37-16.17,42.38-51.44,42.38-69.66A42.43,42.43,0,0,0,100,42.85Z"/><path class="cls-1" d="M100,106.21A23.24,23.24,0,1,1,123.24,83,23.26,23.26,0,0,1,100,106.21ZM100,69a14,14,0,1,0,14,14A14,14,0,0,0,100,69Z"/></svg>