<?xml version="1.0" encoding="utf-8"?>
<!-- Generator: Adobe Illustrator 25.4.1, SVG Export Plug-In . SVG Version: 6.00 Build 0)  -->
<svg version="1.1" id="Layer_1" xmlns="http://www.w3.org/2000/svg" xmlns:xlink="http://www.w3.org/1999/xlink" x="0px" y="0px"
	 viewBox="0 0 200 200" style="enable-background:new 0 0 200 200;" xml:space="preserve">
<style type="text/css">
	.st0{fill:#010201;}
</style>
<path class="st0" d="M147.57,47.46H52.43c-10.65,0-19.31,8.66-19.31,19.31v66.46c0,10.65,8.66,19.31,19.31,19.31h95.14
	c10.65,0,19.31-8.66,19.31-19.31V66.77C166.88,56.12,158.22,47.46,147.57,47.46z M147.57,56.69c0.79,0,1.56,0.1,2.29,0.27
	l-40.14,45.54c-2.46,2.79-6.01,4.39-9.73,4.39c-3.72,0-7.27-1.6-9.73-4.39L50.14,56.96c0.74-0.17,1.5-0.27,2.29-0.27H147.57z
	 M157.65,133.23c0,5.56-4.52,10.08-10.08,10.08H52.43c-5.56,0-10.08-4.52-10.08-10.08V66.77c0-1.35,0.27-2.64,0.76-3.82l40.25,45.66
	c4.21,4.78,10.28,7.52,16.65,7.52c6.37,0,12.44-2.74,16.65-7.52l40.24-45.66c0.48,1.18,0.76,2.47,0.76,3.82V133.23z"/>
</svg>
