<svg id="Layer_1" data-name="Layer 1" xmlns="http://www.w3.org/2000/svg" viewBox="0 0 120.88 96.93"><defs><style>.cls-1{fill:#fff;}</style></defs><path class="cls-1" d="M225.85,135.5a22.9,22.9,0,0,0-17.5-7.35c-13.18.44-25.43,8.5-24,29.18,0,0-19.85,6-50.76-23.34,0,0-9.94,16.21,7.64,31.48,0,0-4.94,1.37-11.53-2.31,0,0-3.53,13.69,19.09,24.07,0,0-7.64,2.16-11.09,0,0,0,2,14.55,22.33,18,0,0-10.45,10.37-35.16,10.08,0,0,51.39,26.3,87-7.49,25.44-24.13,21.91-56.34,21.91-56.34a22.68,22.68,0,0,0,12-10.44s-8.5,2.66-13.4,2.23c0,0,9.36-5.84,10.08-12.75C242.42,130.53,234.43,136.22,225.85,135.5Z" transform="translate(-124.85 -128.14)"/></svg>