<?xml version="1.0" encoding="utf-8"?>
<!-- Generator: Adobe Illustrator 24.3.0, SVG Export Plug-In . SVG Version: 6.00 Build 0)  -->
<svg version="1.1" id="Layer_1" xmlns="http://www.w3.org/2000/svg" xmlns:xlink="http://www.w3.org/1999/xlink" x="0px" y="0px"
	 viewBox="0 0 2370.79 654.25" style="enable-background:new 0 0 2370.79 654.25;" xml:space="preserve">
<style type="text/css">
	.st0{fill:#FFFFFF;}
	.st1{font-family:'FranklinGothic-Heavy';}
	.st2{font-size:335.2209px;}
	.st3{letter-spacing:26;}
	.st4{font-family:'FranklinGothic-MediumCond';}
	.st5{font-size:260px;}
	.st6{letter-spacing:20;}
</style>
<g>
	<text transform="matrix(1 0 0 1 909.6887 290.2877)"><tspan x="0" y="0" class="st0 st1 st2 st3">V ZONE</tspan><tspan x="0" y="238.06" class="st0 st4 st5 st6">SOLUTIONS</tspan></text>
	<g>
		<polygon class="st0" points="490.77,646.26 552.51,539.42 429.02,539.42 		"/>
		<polygon class="st0" points="528.95,377.79 641.29,377.79 762.51,167.66 650.5,167.66 		"/>
		<polygon class="st0" points="434.84,410.11 574.82,167.66 462.8,167.66 266.74,507.1 714.79,507.1 658.71,410.11 		"/>
		<path class="st0" d="M314.17,39.99l353.2,1.85c-53.43,99.59-49.78,92.8-49.78,92.8l-244.33,0.7L314.17,39.99z"/>
		<polygon class="st0" points="834.78,40.29 724.67,40.29 528.95,379.29 641.29,377.79 		"/>
		<polygon class="st0" points="379.26,250.15 319.99,337.68 135.44,44.51 252.24,43.71 		"/>
	</g>
</g>
</svg>
